# xmcd
#
# Track frame offsets: 
#        150
#        12085
#        24620
#        40333
#        54105
#        73155
#        87004
#        99536
#        115585
#        128339
#        144356
#        157801
#        178630
#        180944
#        183352
#        186292
#        193582
#        200486
#        202643
#        207167
#        209530
#        213528
#        217709
#        223607
#        227368
#        232557
#        237238
#        246760
#        249657
#        254354
#        258351
#        263827
#
# Disc length: 3573 seconds
#
# Revision: 0
# Processed by: cddbd v1.5.2PL0 Copyright (c) Steve Scherf et al.
# Submitted via: ExactAudioCopy v0.95b4
#
DISCID=aa0df320
DTITLE=Vern Gosdin - The Truly Great Hits Of Vern Gosdin
DYEAR=2002
DGENRE=Country
TTITLE0=I Can Tell By The Way You Dance
TTITLE1=What Would Your Memories Do
TTITLE2=Dim Lights, Thick Smoke And Loud, Loud Music
TTITLE3=Today My World Slipped Away
TTITLE4=Jesus Hold My Hand
TTITLE5=Turn, Turn, Turn
TTITLE6=Way Down Deep
TTITLE7=Time Stood Still
TTITLE8=Slow Burning Memory
TTITLE9=I Wonder Where We'd Be Tonight
TTITLE10=I Know The Way To You By Heart
TTITLE11=I Can Tell By The Way You Dance (Remix)
TTITLE12=Interview With Vern Gosdin
TTITLE13=Interview With Vern Gosdin
TTITLE14=Interview With Vern Gosdin
TTITLE15=Interview With Vern Gosdin
TTITLE16=Interview With Vern Gosdin
TTITLE17=Interview With Vern Gosdin
TTITLE18=Interview With Vern Gosdin
TTITLE19=Interview With Vern Gosdin
TTITLE20=Interview With Vern Gosdin
TTITLE21=Interview With Vern Gosdin
TTITLE22=Interview With Vern Gosdin
TTITLE23=Interview With Vern Gosdin
TTITLE24=Interview With Vern Gosdin
TTITLE25=Interview With Vern Gosdin
TTITLE26=Interview With Vern Gosdin
TTITLE27=Interview With Vern Gosdin
TTITLE28=Interview With Vern Gosdin
TTITLE29=Interview With Vern Gosdin
TTITLE30=Interview With Vern Gosdin
TTITLE31=Interview With Vern Gosdin
EXTD=
EXTT0=
EXTT1=
EXTT2=
EXTT3=
EXTT4=
EXTT5=
EXTT6=
EXTT7=
EXTT8=
EXTT9=
EXTT10=
EXTT11=
EXTT12=
EXTT13=
EXTT14=
EXTT15=
EXTT16=
EXTT17=
EXTT18=
EXTT19=
EXTT20=
EXTT21=
EXTT22=
EXTT23=
EXTT24=
EXTT25=
EXTT26=
EXTT27=
EXTT28=
EXTT29=
EXTT30=
EXTT31=
PLAYORDER=
